<svg xmlns="http://www.w3.org/2000/svg" style="display: none">
  <symbol id="heart" viewBox="0 0 24 24" fill="currentColor">
    <path d="M12.39 20.87a.696.696 0 0 1-.78 0C9.764 19.637 2 14.15 2 8.973c0-6.68 7.85-7.75 10-3.25 2.15-4.5 10-3.43 10 3.25 0 5.178-7.764 10.664-9.61 11.895z" />
  </symbol>

  <symbol id="bin" viewBox="0 0 24 24" fill="none" stroke="currentColor" stroke-width="2" stroke-linecap="round" stroke-linejoin="round">
		<path d="M22.0827 4.66602L1.91602 4.66602" />
    <path d="M9.25 10.166V17.4993" />
    <path d="M14.75 10.166V17.4993" />
    <path d="M20.25 4.66602V22.0827C20.25 22.3258 20.1534 22.559 19.9815 22.7309C19.8096 22.9028 19.5764 22.9993 19.3333 22.9993H4.66667C4.42355 22.9993 4.19039 22.9028 4.01849 22.7309C3.84658 22.559 3.75 22.3258 3.75 22.0827V4.66602" />
    <path d="M16.5827 4.66667V2.83333C16.5827 2.3471 16.3895 1.88079 16.0457 1.53697C15.7019 1.19315 15.2356 1 14.7493 1H9.24935C8.76312 1 8.2968 1.19315 7.95299 1.53697C7.60917 1.88079 7.41602 2.3471 7.41602 2.83333V4.66667" />
  </symbol>
</svg>
